<svg xmlns="http://www.w3.org/2000/svg" width="32.768" height="32.768" viewBox="0 0 32.768 32.768">
  <g id="Group_7506" data-name="Group 7506" transform="translate(-1124.616 -157.616)">
    <g id="Group_7455" data-name="Group 7455" transform="translate(0 -1)">
      <path id="Path_4217" data-name="Path 4217" d="M26.384,10A16.384,16.384,0,1,0,42.768,26.384,16.379,16.379,0,0,0,26.384,10Zm9.871,26.255a14.071,14.071,0,0,1-4.424,2.99,14.5,14.5,0,0,1-5.448,1.065A13.781,13.781,0,0,1,20.936,39.2a13.622,13.622,0,0,1-4.424-2.99,13.656,13.656,0,0,1-4.055-9.83,13.781,13.781,0,0,1,1.106-5.448,13.622,13.622,0,0,1,2.99-4.424,13.656,13.656,0,0,1,9.83-4.055,13.781,13.781,0,0,1,5.448,1.106,13.622,13.622,0,0,1,4.424,2.99,13.656,13.656,0,0,1,4.055,9.83,14.113,14.113,0,0,1-4.055,9.871Z" transform="translate(1114.616 148.616)"/>
      <path id="Path_4218" data-name="Path 4218" d="M32.465,20.3A12.165,12.165,0,1,0,44.63,32.465,12.166,12.166,0,0,0,32.465,20.3Zm6.1,13.8H34.1v4.465a1.638,1.638,0,0,1-3.277,0V34.1H26.362a1.638,1.638,0,0,1,0-3.277h4.465V26.362a1.638,1.638,0,0,1,3.277,0v4.465h4.465a1.638,1.638,0,0,1,0,3.277Z" transform="translate(1108.535 142.535)"/>
    </g>
  </g>
</svg>
