<svg xmlns="http://www.w3.org/2000/svg" width="20.504" height="21.58" viewBox="0 0 20.504 21.58">
  <path id="bell" d="M7.437,17a2.125,2.125,0,0,0,2.124-2.125H5.313A2.125,2.125,0,0,0,7.437,17Zm7.152-4.971c-.641-.689-1.842-1.726-1.842-5.123A5.243,5.243,0,0,0,8.5,1.754V1.063a1.062,1.062,0,1,0-2.124,0v.692A5.243,5.243,0,0,0,2.128,6.906c0,3.4-1.2,4.434-1.842,5.123A1.037,1.037,0,0,0,0,12.75a1.063,1.063,0,0,0,1.066,1.063H13.809a1.063,1.063,0,0,0,1.066-1.062,1.037,1.037,0,0,0-.286-.721Z" transform="matrix(0.914, 0.407, -0.407, 0.914, 6.915, 0)" fill="#fff"/>
</svg>
