<svg id="nav_logout" xmlns="http://www.w3.org/2000/svg" width="19.796" height="19.795" viewBox="0 0 19.796 19.795">
  <path id="Path_3641" data-name="Path 3641" d="M12.372,10.722a.825.825,0,0,0-.825.825v3.3a.826.826,0,0,1-.825.825H8.248V3.3A1.662,1.662,0,0,0,7.125,1.731L6.881,1.65h3.842a.826.826,0,0,1,.825.825V4.949a.825.825,0,1,0,1.65,0V2.474A2.477,2.477,0,0,0,10.722,0H1.856a.644.644,0,0,0-.088.018C1.728.015,1.69,0,1.65,0A1.651,1.651,0,0,0,0,1.65V16.5a1.662,1.662,0,0,0,1.123,1.568l4.964,1.655A1.708,1.708,0,0,0,6.6,19.8a1.651,1.651,0,0,0,1.65-1.65v-.825h2.474A2.477,2.477,0,0,0,13.2,14.846v-3.3a.825.825,0,0,0-.825-.825Z" fill="#555"/>
  <path id="Path_3642" data-name="Path 3642" d="M21.831,8.541l-3.3-3.3a.825.825,0,0,0-1.408.583V8.3h-3.3a.825.825,0,0,0,0,1.65h3.3v2.474a.825.825,0,0,0,1.408.583l3.3-3.3a.824.824,0,0,0,0-1.166Z" transform="translate(-2.278 -0.876)" fill="#555"/>
</svg>
