<svg xmlns="http://www.w3.org/2000/svg" width="26.699" height="26.7" viewBox="0 0 26.699 26.7">
  <g id="wallet" transform="translate(-0.003 0)">
    <g id="Group_2666" data-name="Group 2666" transform="translate(0.003 0)">
      <g id="Group_2665" data-name="Group 2665" transform="translate(0 0)">
        <path id="Path_3628" data-name="Path 3628" d="M24.882,21.845H20.634a4.854,4.854,0,1,1,0-9.709h4.248a.606.606,0,0,0,.607-.607V9.709A2.422,2.422,0,0,0,23.255,7.3L19.77,1.215A2.4,2.4,0,0,0,16.475.327L4.528,7.282H2.43A2.43,2.43,0,0,0,0,9.709V24.272A2.43,2.43,0,0,0,2.43,26.7H23.061a2.43,2.43,0,0,0,2.427-2.427v-1.82A.606.606,0,0,0,24.882,21.845ZM20.522,4.973l1.322,2.309H16.556ZM6.94,7.282,17.086,1.376a1.173,1.173,0,0,1,.9-.121,1.19,1.19,0,0,1,.729.564v0L9.336,7.282Z" transform="translate(-0.003 0)" fill="#fff"/>
        <path id="Path_3629" data-name="Path 3629" d="M306.558,234.674h-4.248a3.641,3.641,0,1,0,0,7.282h4.248a1.822,1.822,0,0,0,1.82-1.82v-3.641A1.822,1.822,0,0,0,306.558,234.674Zm-4.248,4.854a1.214,1.214,0,1,1,1.214-1.214A1.215,1.215,0,0,1,302.311,239.528Z" transform="translate(-281.68 -221.324)" fill="#fff"/>
      </g>
    </g>
  </g>
</svg>
